<?xml version="1.0" encoding="UTF-8"?>
<svg xmlns="http://www.w3.org/2000/svg" xmlns:xlink="http://www.w3.org/1999/xlink" width="359px" height="500px" viewBox="0 0 359 499" version="1.1">
<g id="surface1">
<path style=" stroke:none;fill-rule:nonzero;fill:rgb(100%,39.607843%,51.764706%);fill-opacity:1;" d="M 111.390625 55.632812 C 111.390625 86.359375 86.457031 111.269531 55.695312 111.269531 C 24.9375 111.269531 0 86.359375 0 55.632812 C 0 24.910156 24.9375 0 55.695312 0 C 86.457031 0 111.390625 24.910156 111.390625 55.632812 Z M 111.390625 55.632812 "/>
<path style=" stroke:none;fill-rule:nonzero;fill:rgb(24.705882%,23.921569%,33.72549%);fill-opacity:1;" d="M 217.824219 124.984375 L 220.140625 114.882812 C 219.746094 113.832031 220.167969 112.625 221.1875 112.082031 C 222.976562 109.109375 225.632812 107.71875 229.109375 107.832031 C 230.039062 107.335938 231.152344 107.554688 231.84375 108.285156 C 233.492188 106.113281 235.824219 104.953125 238.707031 104.605469 C 238.472656 103.628906 238.90625 102.578125 239.835938 102.082031 C 241.664062 99.304688 244.464844 98.121094 247.761719 97.832031 C 248.867188 97.238281 250.25 97.652344 250.84375 98.761719 L 251.289062 99.589844 L 259.3125 102.992188 L 258.617188 104.191406 L 251.949219 100.863281 C 253.433594 104.085938 252.175781 107.945312 249.003906 109.644531 C 245.707031 111.410156 241.601562 110.175781 239.832031 106.882812 L 239.03125 105.390625 L 232.316406 108.992188 L 233.117188 110.484375 C 234.886719 113.773438 233.648438 117.875 230.355469 119.644531 C 227.058594 121.410156 222.953125 120.175781 221.183594 116.882812 L 220.828125 116.226562 L 219.746094 125.035156 Z M 217.824219 124.984375 "/>
<path style=" stroke:none;fill-rule:nonzero;fill:rgb(94.901961%,94.901961%,94.901961%);fill-opacity:1;" d="M 188.300781 484.46875 C 186.550781 484.578125 185.582031 482.40625 186.90625 481.140625 L 187.039062 480.617188 C 187.019531 480.578125 187.003906 480.535156 186.984375 480.492188 C 185.21875 476.277344 179.222656 476.308594 177.46875 480.527344 C 175.910156 484.273438 173.929688 488.023438 173.441406 491.984375 C 173.222656 493.734375 173.320312 495.511719 173.710938 497.230469 C 170.0625 489.269531 168.140625 480.578125 168.140625 471.839844 C 168.140625 469.640625 168.261719 467.445312 168.507812 465.253906 C 168.710938 463.464844 168.988281 461.683594 169.351562 459.917969 C 171.304688 450.378906 175.53125 441.296875 181.628906 433.707031 C 184.558594 432.109375 187.003906 429.605469 188.480469 426.605469 C 189.011719 425.527344 189.425781 424.363281 189.625 423.175781 C 189.289062 423.21875 188.367188 418.144531 188.617188 417.835938 C 188.152344 417.128906 187.320312 416.78125 186.8125 416.089844 C 184.289062 412.671875 180.808594 413.269531 178.992188 417.917969 C 175.113281 419.871094 175.074219 423.117188 177.457031 426.234375 C 178.96875 428.222656 179.179688 430.90625 180.507812 433.03125 C 180.371094 433.207031 180.226562 433.375 180.089844 433.550781 C 177.585938 436.761719 175.414062 440.214844 173.585938 443.84375 C 174.105469 439.8125 173.339844 434.953125 172.042969 431.824219 C 170.5625 428.257812 167.785156 425.253906 165.34375 422.167969 C 162.410156 418.464844 156.390625 420.082031 155.875 424.777344 C 155.867188 424.824219 155.863281 424.867188 155.859375 424.914062 C 156.222656 425.117188 156.578125 425.335938 156.925781 425.566406 C 158.90625 426.875 158.222656 429.941406 155.875 430.304688 L 155.820312 430.3125 C 155.953125 431.617188 156.175781 432.910156 156.503906 434.183594 C 153.371094 446.292969 160.136719 450.703125 169.800781 450.898438 C 170.011719 451.007812 170.21875 451.117188 170.433594 451.222656 C 169.453125 453.976562 168.671875 456.800781 168.09375 459.660156 C 167.574219 462.191406 167.210938 464.746094 167.011719 467.316406 C 166.757812 470.554688 166.78125 473.808594 167.054688 477.042969 L 167.039062 476.929688 C 166.34375 473.367188 164.40625 470.039062 161.597656 467.734375 C 157.410156 464.300781 151.492188 463.035156 146.976562 460.273438 C 144.800781 458.941406 142.015625 460.660156 142.394531 463.179688 L 142.410156 463.300781 C 143.085938 463.574219 143.742188 463.890625 144.375 464.246094 C 144.738281 464.449219 145.09375 464.667969 145.441406 464.894531 C 147.421875 466.203125 146.738281 469.273438 144.390625 469.632812 L 144.335938 469.640625 C 144.296875 469.648438 144.265625 469.652344 144.226562 469.660156 C 145.382812 472.394531 146.988281 474.933594 149 477.125 C 150.960938 487.695312 159.378906 488.699219 168.382812 485.621094 L 168.386719 485.621094 C 169.371094 489.902344 170.8125 494.085938 172.660156 498.074219 L 187.917969 498.074219 C 187.972656 497.90625 188.019531 497.730469 188.070312 497.5625 C 186.660156 497.648438 185.238281 497.566406 183.847656 497.3125 C 184.980469 495.921875 186.113281 494.523438 187.246094 493.136719 C 187.273438 493.109375 187.292969 493.082031 187.316406 493.054688 C 187.890625 492.34375 188.46875 491.640625 189.042969 490.929688 C 189.078125 488.75 188.816406 486.578125 188.300781 484.46875 Z M 188.300781 484.46875 "/>
<path style=" stroke:none;fill-rule:nonzero;fill:rgb(18.431373%,18.039216%,25.490196%);fill-opacity:1;" d="M 248.433594 137.460938 L 257.667969 148.527344 L 252.742188 112.867188 L 250.914062 113.777344 C 249.011719 114.730469 247.796875 116.660156 247.761719 118.785156 Z M 248.433594 137.460938 "/>
<path style=" stroke:none;fill-rule:nonzero;fill:rgb(100%,71.372549%,71.372549%);fill-opacity:1;" d="M 229.851562 437.726562 L 235.785156 449.019531 L 235.792969 449.050781 L 237.765625 452.8125 L 240.9375 458.84375 L 240.941406 458.851562 L 242.269531 461.394531 L 244.257812 465.171875 L 249.277344 463.265625 L 250.773438 462.691406 L 251.558594 462.394531 L 250.230469 458.910156 L 246.71875 449.660156 L 240.621094 433.636719 L 240.554688 433.664062 L 239.054688 434.230469 L 233.070312 436.503906 L 231.574219 437.070312 Z M 229.851562 437.726562 "/>
<path style=" stroke:none;fill-rule:nonzero;fill:rgb(18.431373%,18.039216%,25.490196%);fill-opacity:1;" d="M 232.75 483.03125 C 233.441406 484.832031 235.457031 485.738281 237.253906 485.054688 L 239.652344 484.144531 L 241.148438 483.574219 L 247.136719 481.308594 L 248.644531 480.738281 L 251.773438 479.546875 L 252.304688 473.429688 L 253.585938 475.515625 L 253.585938 475.523438 L 255.25 478.226562 L 256.128906 477.898438 L 260.726562 476.152344 L 252.183594 458.300781 L 250.230469 458.910156 L 249.519531 459.128906 L 247.988281 459.605469 L 242.277344 461.390625 L 242.269531 461.394531 L 241.875 461.519531 L 240.34375 461.996094 L 239.707031 462.195312 L 241.699219 467.417969 L 237.570312 473.398438 L 236.445312 475.03125 L 233.140625 479.816406 C 232.492188 480.761719 232.339844 481.960938 232.75 483.03125 Z M 232.75 483.03125 "/>
<path style=" stroke:none;fill-rule:nonzero;fill:rgb(100%,71.372549%,71.372549%);fill-opacity:1;" d="M 290.988281 450.664062 L 292.785156 463.292969 L 292.785156 463.324219 L 293.378906 467.527344 L 294.339844 474.273438 L 294.339844 474.28125 L 294.738281 477.125 L 295.339844 481.347656 L 300.707031 481.238281 L 302.308594 481.195312 L 303.152344 481.179688 L 303.070312 477.453125 L 302.871094 467.558594 L 302.511719 450.425781 L 302.4375 450.425781 L 300.835938 450.457031 L 294.433594 450.59375 L 292.832031 450.625 Z M 290.988281 450.664062 "/>
<path style=" stroke:none;fill-rule:nonzero;fill:rgb(18.431373%,18.039216%,25.490196%);fill-opacity:1;" d="M 278.5 494.3125 C 278.546875 496.242188 280.140625 497.769531 282.0625 497.730469 L 284.628906 497.675781 L 286.230469 497.644531 L 292.632812 497.515625 L 294.242188 497.484375 L 297.589844 497.410156 L 300.148438 491.824219 L 300.652344 494.21875 L 300.652344 494.226562 L 301.308594 497.332031 L 302.246094 497.316406 L 307.164062 497.210938 L 305.113281 477.53125 L 303.070312 477.453125 L 302.328125 477.417969 L 300.722656 477.355469 L 294.746094 477.125 L 294.738281 477.125 L 294.324219 477.105469 L 292.71875 477.042969 L 292.054688 477.019531 L 292.175781 482.605469 L 286.277344 486.855469 L 284.667969 488.015625 L 279.949219 491.417969 C 279.019531 492.089844 278.476562 493.167969 278.5 494.3125 Z M 278.5 494.3125 "/>
<path style=" stroke:none;fill-rule:nonzero;fill:rgb(100%,71.372549%,71.372549%);fill-opacity:1;" d="M 309.65625 284.609375 L 303.9375 250.8125 L 316.207031 245.878906 L 318.773438 283.253906 C 319.921875 283.953125 320.890625 284.980469 321.511719 286.285156 C 323.210938 289.863281 321.6875 294.136719 318.109375 295.835938 C 314.527344 297.535156 310.25 296.015625 308.546875 292.441406 C 307.273438 289.765625 307.808594 286.695312 309.65625 284.609375 Z M 309.65625 284.609375 "/>
<path style=" stroke:none;fill-rule:nonzero;fill:rgb(100%,71.372549%,71.372549%);fill-opacity:1;" d="M 214.992188 134.492188 L 192.71875 160.566406 L 181.058594 154.335938 L 208.097656 128.378906 C 207.898438 127.050781 208.066406 125.648438 208.671875 124.335938 C 210.324219 120.738281 214.582031 119.160156 218.183594 120.808594 C 221.789062 122.460938 223.367188 126.714844 221.714844 130.316406 C 220.476562 133.007812 217.78125 134.566406 214.992188 134.492188 Z M 214.992188 134.492188 "/>
<path style=" stroke:none;fill-rule:nonzero;fill:rgb(100%,71.372549%,71.372549%);fill-opacity:1;" d="M 282.617188 129.324219 C 282.617188 139.5 274.359375 147.746094 264.175781 147.746094 C 253.988281 147.746094 245.734375 139.5 245.734375 129.324219 C 245.734375 119.152344 253.988281 110.902344 264.175781 110.902344 C 274.359375 110.902344 282.617188 119.152344 282.617188 129.324219 Z M 282.617188 129.324219 "/>
<path style=" stroke:none;fill-rule:nonzero;fill:rgb(18.431373%,18.039216%,25.490196%);fill-opacity:1;" d="M 238.746094 246.179688 L 288.441406 240.757812 L 290.289062 249.367188 L 290.289062 251.429688 L 291.351562 252.660156 L 291.738281 254.203125 L 292.75 254.285156 C 292.75 254.285156 292.164062 255.328125 292.585938 255.894531 C 292.910156 256.332031 294.175781 256.179688 294.691406 256.929688 C 299.910156 264.53125 313.433594 287.699219 306.910156 315.769531 L 307.832031 362.191406 L 306.980469 365.84375 L 307.964844 368.214844 L 308.671875 371.765625 L 309.679688 445.199219 L 312.140625 453.804688 L 308.449219 464.875 L 286.289062 466.101562 L 282.59375 451.960938 L 284.441406 434.128906 L 278.902344 381.867188 L 277.34375 379.375 L 278.238281 376.839844 L 279.039062 373.457031 L 277.332031 369.957031 L 271.277344 324.085938 C 269.703125 320.40625 269.050781 316.394531 269.378906 312.40625 L 269.515625 310.722656 L 268.4375 302.550781 L 238.585938 351.121094 L 228.617188 368.363281 L 229.660156 375.71875 L 236.238281 417.417969 L 245.550781 427.566406 L 247.246094 441.097656 L 233.699219 449.554688 L 218.457031 444.480469 L 218.457031 434.332031 L 195.214844 370.917969 L 221.65625 292.714844 L 225.964844 289.023438 L 225.351562 284.105469 L 229.417969 280.042969 L 237.550781 261.816406 L 241.285156 253.792969 Z M 238.746094 246.179688 "/>
<path style=" stroke:none;fill-rule:nonzero;fill:rgb(42.352941%,38.823529%,100%);fill-opacity:1;" d="M 255.511719 148.835938 L 275.101562 148.835938 L 279.519531 162.363281 L 307.21875 175.273438 L 301.0625 204.171875 L 293.675781 229.382812 L 291.5 231.554688 L 292.445312 235.53125 L 287.664062 235.53125 L 288.441406 240.757812 L 293.675781 248.445312 L 237.378906 247.238281 L 237.378906 234.695312 L 241.785156 216.988281 C 236.222656 204.769531 239.324219 197.40625 240.089844 184.003906 L 235.199219 165.4375 L 250.585938 163.933594 Z M 255.511719 148.835938 "/>
<path style=" stroke:none;fill-rule:nonzero;fill:rgb(42.352941%,38.823529%,100%);fill-opacity:1;" d="M 242.753906 184.226562 L 247.0625 173.773438 C 247.0625 173.773438 246.449219 166.394531 233.519531 164.550781 C 220.59375 162.703125 196.054688 160.859375 196.054688 160.859375 L 201.988281 154.402344 L 204.527344 147.636719 L 192.675781 141.714844 L 185.878906 145.054688 L 183.359375 149.328125 L 184.207031 151.019531 L 180.53125 153.246094 C 175.957031 160.519531 177.914062 170.101562 184.972656 175 L 187.71875 177.746094 L 191.746094 179.921875 L 196.667969 179.304688 Z M 242.753906 184.226562 "/>
<path style=" stroke:none;fill-rule:nonzero;fill:rgb(42.352941%,38.823529%,100%);fill-opacity:1;" d="M 292.75 177.734375 L 303.214844 173.429688 C 303.214844 173.429688 310.601562 174.046875 312.449219 186.957031 C 314.296875 199.871094 316.140625 233.6875 316.140625 233.6875 L 319.21875 240.449219 L 319.21875 242.339844 L 321.941406 248.136719 L 320.304688 249.769531 L 324.761719 253.363281 L 304.445312 260.742188 L 300.078125 249.582031 L 301.984375 244.753906 L 299.238281 242.011719 L 297.0625 237.992188 L 297.675781 233.070312 Z M 292.75 177.734375 "/>
<path style=" stroke:none;fill-rule:nonzero;fill:rgb(18.431373%,18.039216%,25.490196%);fill-opacity:1;" d="M 299.21875 167.085938 L 294.171875 167.085938 C 292.484375 164.800781 292.191406 163.296875 292.332031 160.503906 C 292.097656 162.390625 288.082031 156.625 288.3125 158.804688 C 288.363281 159.277344 290.808594 167.472656 290.894531 167.929688 C 288.550781 170.070312 285.832031 171.195312 282.851562 171.585938 C 283.800781 168.71875 282.835938 167.171875 279.914062 167.421875 C 280.066406 168.878906 279.871094 170.367188 279.386719 171.746094 C 270.566406 171.449219 259.914062 166.316406 249.390625 162.289062 C 249.007812 159.644531 249.472656 156.867188 250.769531 154.527344 C 249.683594 156.335938 248.628906 158.152344 247.863281 160.117188 C 247.695312 160.554688 247.542969 161.003906 247.40625 161.453125 C 247.316406 161.773438 247.230469 162.09375 247.152344 162.410156 L 242.277344 162.671875 C 246.417969 156.691406 245.664062 148.308594 250.703125 143.800781 C 258.71875 136.636719 251.953125 126.210938 248.601562 116.492188 C 248.5 113.972656 250.050781 111.671875 252.429688 110.816406 L 258.941406 108.484375 C 267.21875 105.515625 266.804688 103.8125 274.808594 108.726562 C 282.808594 106.273438 296.820312 119.324219 296.820312 129.027344 C 296.820312 129.871094 296.921875 130.691406 297.082031 131.480469 C 296.144531 131.597656 295.230469 131.902344 294.417969 132.390625 C 295.527344 133.019531 296.609375 133.695312 297.652344 134.429688 C 298.464844 139.421875 298.40625 144.511719 297.246094 149.453125 C 295.941406 155.007812 298.3125 164.4375 299.21875 167.085938 Z M 299.21875 167.085938 "/>
<path style=" stroke:none;fill-rule:nonzero;fill:rgb(80%,80%,80%);fill-opacity:1;" d="M 358.953125 498.121094 C 358.953125 498.679688 358.503906 499.128906 357.945312 499.128906 L 143.484375 499.128906 C 142.925781 499.128906 142.476562 498.679688 142.476562 498.121094 C 142.476562 497.5625 142.925781 497.113281 143.484375 497.113281 L 357.945312 497.113281 C 358.503906 497.113281 358.953125 497.5625 358.953125 498.121094 Z M 358.953125 498.121094 "/>
</g>
</svg>
